<?xml version="1.0" encoding="UTF-8"?>
<svg width="700pt" height="700pt" version="1.1" viewBox="0 0 700 700" xmlns="http://www.w3.org/2000/svg" xmlns:xlink="http://www.w3.org/1999/xlink">
 <defs>
  <symbol id="m" overflow="visible">
   <path d="m29.312-1.75c-1.5117 0.78125-3.0898 1.3711-4.7344 1.7656-1.6367 0.40625-3.3398 0.60938-5.1094 0.60938-5.3125 0-9.5273-1.4844-12.641-4.4531-3.1055-2.9688-4.6562-7-4.6562-12.094s1.5508-9.125 4.6562-12.094c3.1133-2.9688 7.3281-4.4531 12.641-4.4531 1.7695 0 3.4727 0.19922 5.1094 0.59375 1.6445 0.39844 3.2227 0.99219 4.7344 1.7812v6.5938c-1.5312-1.0391-3.0391-1.8008-4.5156-2.2812-1.4805-0.48828-3.0391-0.73438-4.6719-0.73438-2.9375 0-5.2461 0.94531-6.9219 2.8281-1.6797 1.875-2.5156 4.4648-2.5156 7.7656 0 3.293 0.83594 5.8828 2.5156 7.7656 1.6758 1.875 3.9844 2.8125 6.9219 2.8125 1.6328 0 3.1914-0.23828 4.6719-0.71875 1.4766-0.48828 2.9844-1.2539 4.5156-2.2969z"/>
  </symbol>
  <symbol id="c" overflow="visible">
   <path d="m21.453-17.406c-0.67969-0.3125-1.3516-0.53906-2.0156-0.6875-0.65625-0.15625-1.3203-0.23438-1.9844-0.23438-1.9688 0-3.4844 0.63281-4.5469 1.8906-1.0547 1.2617-1.5781 3.0703-1.5781 5.4219v11.016h-7.6562v-23.922h7.6562v3.9219c0.97656-1.5625 2.1016-2.7031 3.375-3.4219 1.2812-0.71875 2.8125-1.0781 4.5938-1.0781 0.25 0 0.52344 0.011719 0.82812 0.03125 0.30078 0.023438 0.73438 0.070312 1.2969 0.14062z"/>
  </symbol>
  <symbol id="b" overflow="visible">
   <path d="m27.562-12.031v2.1875h-17.891c0.1875 1.793 0.83203 3.1367 1.9375 4.0312 1.1133 0.89844 2.6719 1.3438 4.6719 1.3438 1.6016 0 3.25-0.23438 4.9375-0.70312 1.6875-0.47656 3.4219-1.2031 5.2031-2.1719v5.8906c-1.8047 0.6875-3.6094 1.2031-5.4219 1.5469-1.8125 0.35156-3.6211 0.53125-5.4219 0.53125-4.3359 0-7.7031-1.0977-10.109-3.2969-2.3984-2.207-3.5938-5.2969-3.5938-9.2656 0-3.9062 1.1758-6.9727 3.5312-9.2031 2.3633-2.2383 5.6094-3.3594 9.7344-3.3594 3.7578 0 6.7695 1.1367 9.0312 3.4062 2.2578 2.2617 3.3906 5.2812 3.3906 9.0625zm-7.8594-2.5312c0-1.457-0.42969-2.6289-1.2812-3.5156-0.84375-0.89453-1.9492-1.3438-3.3125-1.3438-1.4922 0-2.6992 0.41797-3.625 1.25-0.91797 0.83594-1.4922 2.0391-1.7188 3.6094z"/>
  </symbol>
  <symbol id="d" overflow="visible">
   <path d="m14.391-10.766c-1.5938 0-2.793 0.27344-3.5938 0.8125-0.80469 0.54297-1.2031 1.3398-1.2031 2.3906 0 0.96875 0.32031 1.7305 0.96875 2.2812 0.64453 0.54297 1.5469 0.8125 2.7031 0.8125 1.4375 0 2.6445-0.51562 3.625-1.5469 0.98828-1.0312 1.4844-2.3203 1.4844-3.875v-0.875zm11.688-2.8906v13.656h-7.7031v-3.5469c-1.0312 1.4492-2.1875 2.5078-3.4688 3.1719s-2.8398 1-4.6719 1c-2.4805 0-4.4961-0.72266-6.0469-2.1719-1.543-1.4453-2.3125-3.3203-2.3125-5.625 0-2.8125 0.96094-4.8672 2.8906-6.1719 1.9375-1.3125 4.9688-1.9688 9.0938-1.9688h4.5156v-0.60938c0-1.207-0.48047-2.0938-1.4375-2.6562-0.94922-0.5625-2.4375-0.84375-4.4688-0.84375-1.6367 0-3.1562 0.16797-4.5625 0.5-1.4062 0.32422-2.7188 0.8125-3.9375 1.4688v-5.8281c1.6445-0.40625 3.2891-0.70703 4.9375-0.90625 1.6562-0.20703 3.3047-0.3125 4.9531-0.3125 4.3203 0 7.4375 0.85547 9.3438 2.5625 1.9141 1.6992 2.875 4.4609 2.875 8.2812z"/>
  </symbol>
  <symbol id="a" overflow="visible">
   <path d="m12.031-30.719v6.7969h7.875v5.4688h-7.875v10.141c0 1.1172 0.21875 1.8711 0.65625 2.2656 0.4375 0.38672 1.3125 0.57812 2.625 0.57812h3.9375v5.4688h-6.5625c-3.0234 0-5.1641-0.62891-6.4219-1.8906-1.2617-1.2578-1.8906-3.3984-1.8906-6.4219v-10.141h-3.7969v-5.4688h3.7969v-6.7969z"/>
  </symbol>
  <symbol id="i" overflow="visible">
   <path d="m19.953-20.422v-12.812h7.6875v33.234h-7.6875v-3.4531c-1.0547 1.4062-2.2148 2.4375-3.4844 3.0938-1.2734 0.65625-2.7422 0.98438-4.4062 0.98438-2.9492 0-5.3711-1.1719-7.2656-3.5156-1.8867-2.3438-2.8281-5.3594-2.8281-9.0469s0.94141-6.7031 2.8281-9.0469c1.8945-2.3438 4.3164-3.5156 7.2656-3.5156 1.6562 0 3.1172 0.33594 4.3906 1 1.2812 0.65625 2.4453 1.6836 3.5 3.0781zm-5.0469 15.484c1.6445 0 2.8945-0.59766 3.75-1.7969 0.86328-1.1953 1.2969-2.9297 1.2969-5.2031 0-2.2812-0.43359-4.0195-1.2969-5.2188-0.85547-1.1953-2.1055-1.7969-3.75-1.7969-1.625 0-2.8711 0.60156-3.7344 1.7969-0.85547 1.1992-1.2812 2.9375-1.2812 5.2188 0 2.2734 0.42578 4.0078 1.2812 5.2031 0.86328 1.1992 2.1094 1.7969 3.7344 1.7969z"/>
  </symbol>
  <symbol id="h" overflow="visible">
   <path d="m16.406-4.9375c1.6328 0 2.8828-0.59766 3.75-1.7969 0.86328-1.1953 1.2969-2.9297 1.2969-5.2031 0-2.2812-0.43359-4.0195-1.2969-5.2188-0.86719-1.1953-2.1172-1.7969-3.75-1.7969-1.6367 0-2.8906 0.60547-3.7656 1.8125-0.875 1.1992-1.3125 2.9336-1.3125 5.2031 0 2.2617 0.4375 3.9961 1.3125 5.2031 0.875 1.1992 2.1289 1.7969 3.7656 1.7969zm-5.0781-15.484c1.0508-1.3945 2.2188-2.4219 3.5-3.0781 1.2812-0.66406 2.7539-1 4.4219-1 2.9453 0 5.3672 1.1719 7.2656 3.5156 1.8945 2.3438 2.8438 5.3594 2.8438 9.0469s-0.94922 6.7031-2.8438 9.0469c-1.8984 2.3438-4.3203 3.5156-7.2656 3.5156-1.668 0-3.1406-0.33594-4.4219-1s-2.4492-1.6914-3.5-3.0781v3.4531h-7.6562v-33.234h7.6562z"/>
  </symbol>
  <symbol id="g" overflow="visible">
   <path d="m0.53125-23.922h7.6562l6.4219 16.234 5.4688-16.234h7.6562l-10.062 26.188c-1.0117 2.6641-2.1953 4.5234-3.5469 5.5781-1.3438 1.0625-3.1211 1.5938-5.3281 1.5938h-4.4219v-5.0156h2.3906c1.3008 0 2.2422-0.21094 2.8281-0.625 0.59375-0.40625 1.0547-1.1484 1.3906-2.2188l0.20312-0.65625z"/>
  </symbol>
  <symbol id="f" overflow="visible">
   <path d="m0.21875-31.891h8.2656l8.4531 23.531 8.4375-23.531h8.2656l-11.812 31.891h-9.7969z"/>
  </symbol>
  <symbol id="l" overflow="visible">
   <path d="m23-23.172v6.2344c-1.0312-0.71875-2.0742-1.2422-3.125-1.5781-1.043-0.34375-2.125-0.51562-3.25-0.51562-2.1367 0-3.8047 0.625-5 1.875-1.1875 1.2422-1.7812 2.9805-1.7812 5.2188 0 2.2305 0.59375 3.9688 1.7812 5.2188 1.1953 1.25 2.8633 1.875 5 1.875 1.1953 0 2.332-0.17578 3.4062-0.53125 1.0703-0.36328 2.0625-0.89453 2.9688-1.5938v6.2656c-1.1875 0.4375-2.4023 0.76562-3.6406 0.98438-1.2305 0.22656-2.4648 0.34375-3.7031 0.34375-4.3125 0-7.6875-1.1094-10.125-3.3281s-3.6562-5.2969-3.6562-9.2344c0-3.9453 1.2188-7.0234 3.6562-9.2344 2.4375-2.2188 5.8125-3.3281 10.125-3.3281 1.25 0 2.4844 0.10938 3.7031 0.32812s2.4297 0.55469 3.6406 1z"/>
  </symbol>
  <symbol id="e" overflow="visible">
   <path d="m15.062-19.031c-1.6992 0-2.9961 0.60938-3.8906 1.8281-0.88672 1.2188-1.3281 2.9766-1.3281 5.2656 0 2.293 0.44141 4.0469 1.3281 5.2656 0.89453 1.2188 2.1914 1.8281 3.8906 1.8281 1.6641 0 2.9375-0.60938 3.8125-1.8281 0.88281-1.2188 1.3281-2.9727 1.3281-5.2656 0-2.2891-0.44531-4.0469-1.3281-5.2656-0.875-1.2188-2.1484-1.8281-3.8125-1.8281zm0-5.4688c4.1133 0 7.3281 1.1094 9.6406 3.3281s3.4688 5.2969 3.4688 9.2344c0 3.9297-1.1562 7.0078-3.4688 9.2344-2.3125 2.2188-5.5273 3.3281-9.6406 3.3281-4.1367 0-7.3711-1.1094-9.7031-3.3281-2.3242-2.2266-3.4844-5.3047-3.4844-9.2344 0-3.9375 1.1602-7.0156 3.4844-9.2344 2.332-2.2188 5.5664-3.3281 9.7031-3.3281z"/>
  </symbol>
  <symbol id="k" overflow="visible">
   <path d="m4.0156-31.891h13.656c4.0508 0 7.1602 0.90234 9.3281 2.7031 2.1758 1.8047 3.2656 4.3711 3.2656 7.7031 0 3.3438-1.0898 5.918-3.2656 7.7188-2.168 1.8047-5.2773 2.7031-9.3281 2.7031h-5.4375v11.062h-8.2188zm8.2188 5.9531v8.9062h4.5625c1.5938 0 2.8203-0.38281 3.6875-1.1562 0.875-0.78125 1.3125-1.8789 1.3125-3.2969 0-1.4258-0.4375-2.5234-1.3125-3.2969-0.86719-0.76953-2.0938-1.1562-3.6875-1.1562z"/>
  </symbol>
  <symbol id="j" overflow="visible">
   <path d="m3.6719-33.234h7.6562v33.234h-7.6562z"/>
  </symbol>
 </defs>
 <g>
  <path d="m395.59 476.09h-55.648c-4.7266 0-8.4883-3.7617-8.4883-8.4883 0-4.7266 3.7617-8.4883 8.4883-8.4883h55.648c2.2734 0 4.2891-0.4375 6.125-1.3125 4.8984-2.2734 8.3984-6.9141 9.1016-12.25 0.085938-0.4375 0.17578-0.875 0.26172-1.2266 0.085937-0.875 0.085937-1.75 0-2.625-0.78906-8.3125-7-14.352-14.789-14.613l-58.449-1.8359c-5.0742-0.085938-10.324-1.3125-15.574-3.5-0.26172-0.17578-0.61328-0.26172-0.875-0.4375l-54.602-31.238c-2.5391-1.4883-5.4258-2.2734-8.2266-2.2734h-57.227c-4.7266 0-8.4883-3.7617-8.4883-8.4883 0-4.7266 3.7617-8.4883 8.4883-8.4883h57.227c5.7734 0 11.551 1.5742 16.711 4.5508l54.074 30.977c3.0625 1.2266 6.0391 1.9258 8.8359 2.0117l58.539 1.8359c16.102 0.61328 29.398 13.387 31.062 29.75 0.35156 2.5391 0.26172 5.5117-0.26172 8.3125-0.085937 0.26172-0.085937 0.52344-0.17578 0.875-1.8359 10.5-8.8359 19.688-18.461 24.148-4.0195 1.7578-8.4844 2.8047-13.297 2.8047z"/>
  <path d="m354.46 560c-3.3242 0-6.6484-0.26172-9.9766-0.78906-0.4375-0.085938-0.875-0.17578-1.3984-0.35156l-117.51-40.074c-1.6641-0.61328-3.5-0.875-5.3359-0.875h-18.898c-4.7266 0-8.4883-3.7617-8.4883-8.4883s3.7617-8.4883 8.4883-8.4883h18.898c3.7617 0 7.4375 0.61328 10.852 1.8359l116.9 39.73c8.3984 1.3125 16.801 0.085938 24.324-3.4141l171.68-79.102c3.0625-1.3984 5.5117-4.1992 6.8242-7.9609 1.5742-4.6367 0.875-9.9766-1.9258-14.438-3.1484-5.0742-9.1875-7.6133-14.961-6.3867l-112.35 23.539c-2.8008 0.69922-5.8633 0.085938-8.0508-2.0117-3.4141-3.2383-3.5859-8.5742-0.35156-11.988 1.2266-1.2266 2.8008-2.1875 4.4609-2.5391l112.79-23.539c12.688-2.7109 25.898 2.9766 32.812 14 5.5117 8.75 6.8242 19.25 3.5859 28.961-2.8867 8.2266-8.4883 14.438-15.75 17.852l-171.68 79.102c-7.8711 3.5898-16.355 5.4258-24.934 5.4258z"/>
  <path d="m201.34 532.96h-55.91c-4.375 0-8.0508-3.4141-8.4883-7.7891l-13.301-158.29c-0.17578-2.3633 0.61328-4.7266 2.1875-6.4766s3.8516-2.7109 6.2109-2.7109h69.301c4.7266 0 8.4883 3.7617 8.4883 8.4883v158.29c0 4.6367-3.7617 8.4844-8.4883 8.4844zm-48.125-16.973h39.637l0.003906-141.4h-51.625z"/>
  <path d="m405.91 195.48c-0.69922-1.5742-1.5742-2.8867-2.625-3.9375-1.0508-1.0508-2.3633-2.0117-3.7617-2.7109-1.3125-0.69922-2.7109-1.3125-4.1133-1.9258-1.3984-0.52344-2.7109-1.0508-4.1133-1.5742-1.3125-0.4375-2.4492-0.96094-3.5-1.5742-0.96094-0.52344-1.75-1.2266-2.3633-1.9258-0.52344-0.69922-0.78906-1.5742-0.78906-2.625 0-0.69922 0.085937-1.3125 0.35156-1.8359 0.26172-0.52344 0.61328-0.96094 1.0508-1.3984 0.52344-0.4375 1.2266-0.69922 2.0117-0.96094 0.875-0.26172 1.9258-0.35156 3.2383-0.35156 1.3984 0 2.625 0.17578 3.8516 0.4375 1.1367 0.35156 2.1875 0.69922 3.1484 1.0508 0.875 0.35156 1.6641 0.69922 2.2734 1.0508 0.78906 0.35156 1.3125 0.61328 1.75 0.61328 0.35156 0 0.61328-0.085938 0.875-0.26172l0.52344-0.61328 0.085938-0.17578c0.085937-0.35156 0.17578-0.78906 0.26172-1.3125 0-0.52344 0.085938-1.2266 0.085938-2.0117v-1.5742c0-0.4375-0.085938-0.875-0.17578-1.2266-0.085938-0.4375-0.17578-0.69922-0.35156-0.96094-0.17578-0.26172-0.35156-0.52344-0.61328-0.78906-0.26172-0.26172-0.69922-0.52344-1.3125-0.875-0.61328-0.26172-1.2266-0.52344-1.9258-0.78906-0.69922-0.26172-1.4883-0.4375-2.2734-0.61328-0.61328-0.085938-1.1367-0.26172-1.6641-0.35156l0.69922-6.6484c0-0.35156-0.085937-0.69922-0.17578-0.96094-0.085937-0.4375-0.4375-0.69922-0.875-0.96094-0.35156-0.17578-0.78906-0.26172-1.3984-0.35156-0.52344-0.085937-1.2266-0.085937-2.1016-0.085937-0.69922 0-1.2266 0-1.6641 0.085937-0.4375 0.085938-0.875 0.17578-1.2266 0.26172-0.35156 0.17578-0.61328 0.35156-0.78906 0.61328l-0.26172 0.61328-0.69922 7.2617c-2.0117 0.26172-3.9375 0.78906-5.6016 1.4883-1.8359 0.78906-3.3242 1.75-4.6367 2.9766-1.2266 1.2266-2.1875 2.7109-2.8867 4.2891-0.69922 1.6641-0.96094 3.5-0.96094 5.4258 0 2.1875 0.35156 4.1133 0.96094 5.6875 0.61328 1.5742 1.5742 2.8867 2.625 4.0234 1.0508 1.0508 2.3633 2.0117 3.6758 2.7109 1.3125 0.69922 2.7109 1.3984 4.1133 1.9258 1.3984 0.52344 2.7109 1.0508 4.0234 1.4883s2.4492 0.96094 3.4141 1.5742c0.96094 0.52344 1.75 1.2266 2.2734 1.9258 0.52344 0.69922 0.78906 1.4883 0.78906 2.625 0 1.6641-0.61328 2.8867-1.9258 3.8516-1.3125 1.0508-3.4141 1.4883-6.2109 1.4883-1.8359 0-3.4141-0.17578-4.8125-0.52344-1.3984-0.35156-2.5391-0.78906-3.5-1.2266s-1.75-0.875-2.3633-1.2266c-0.78906-0.4375-1.3125-0.69922-1.8359-0.69922-0.35156 0-0.69922 0.085937-1.0508 0.26172-0.35156 0.17578-0.52344 0.52344-0.78906 0.96094-0.17578 0.35156-0.26172 0.875-0.35156 1.4883-0.085937 0.61328-0.085937 1.3125-0.085937 2.1875 0 1.1367 0.085937 2.0117 0.17578 2.7109 0.17578 0.69922 0.4375 1.2266 0.78906 1.6641 0.35156 0.35156 0.78906 0.69922 1.4883 1.0508 0.61328 0.35156 1.3125 0.61328 2.1016 0.96094 0.78906 0.26172 1.75 0.61328 2.7109 0.78906 0.78906 0.17578 1.6641 0.35156 2.5391 0.52344l-0.69922 7.0859c-0.085937 0.4375 0 0.78906 0.085938 1.1367 0.17578 0.35156 0.4375 0.69922 0.875 0.875 0.35156 0.17578 0.78906 0.26172 1.3984 0.35156 0.52344 0.085937 1.2266 0.085937 2.1016 0.085937 0.69922 0 1.2266 0 1.6641-0.085937 0.4375-0.085938 0.875-0.17578 1.1367-0.26172 0.35156-0.17578 0.69922-0.35156 0.78906-0.61328l0.26172-0.69922 0.78906-7.7891c2.2734-0.26172 4.375-0.69922 6.3008-1.3984 2.1016-0.78906 3.8516-1.8359 5.3359-3.1484 1.4883-1.3125 2.625-2.8867 3.5-4.7266 0.78906-1.8359 1.2266-3.9375 1.2266-6.2109 0.09375-2.1992-0.25781-4.0352-0.86719-5.6094z"/>
  <path d="m491.31 276.76h-203.35c-9.7109 0-17.586-7.7891-17.586-17.324v-135.62c0-9.5391 7.875-17.324 17.586-17.324h203.35c9.7109 0 17.586 7.7891 17.586 17.324v135.71c0.089843 9.4531-7.875 17.238-17.586 17.238zm-203.35-153.3-0.69922 136.06 0.69922 0.35156h203.35l0.69922-136.06z"/>
  <path d="m454.3 248.06h-129.24c-3.5859 0-6.7383-2.1875-7.9609-5.6016-1.8359-5.1641-6.2109-9.2734-11.461-11.113-3.4141-1.1367-5.7734-4.375-5.7734-8.0508v-63.438c0-3.6758 2.3633-6.8242 5.7734-8.0508 5.3359-1.8359 9.625-5.9492 11.461-11.113 1.2266-3.3242 4.375-5.6016 7.9609-5.6016h129.24c3.5859 0 6.7383 2.1875 7.9609 5.6016 1.8359 5.1641 6.125 9.2734 11.461 11.113 3.4141 1.1367 5.7734 4.375 5.7734 8.0508v63.438c0 3.6758-2.3633 6.8242-5.7734 8.0508-5.3359 1.8359-9.625 5.9492-11.461 11.113-1.2227 3.3281-4.4609 5.6016-7.9609 5.6016zm-123.9-16.977h118.56c3.2383-5.5117 7.9609-10.062 13.562-13.211v-52.5c-5.6016-3.1484-10.324-7.6992-13.562-13.211h-118.56c-3.2383 5.5117-7.9609 10.062-13.562 13.211v52.5c5.6016 3.0625 10.328 7.6992 13.562 13.211z"/>
  <path d="m301.88 361.29c-1.3125 0-2.625-0.26172-3.8516-0.96094-93.363-48.301-130.02-163.54-81.727-256.99 23.363-45.238 63-78.75 111.56-94.238 48.562-15.488 100.19-11.113 145.43 12.25 93.539 48.387 130.29 163.71 81.988 257.16-14.961 28.961-36.926 53.461-63.523 70.699-3.9375 2.5391-9.1875 1.3984-11.727-2.4492-2.5391-3.9375-1.3984-9.1875 2.4492-11.727 24.148-15.75 44.102-37.977 57.75-64.312 44.012-85.137 10.5-190.31-74.637-234.32-41.387-21.266-88.461-25.203-132.65-11.113-44.188 14.086-80.324 44.535-101.68 85.836-44.012 85.137-10.586 190.14 74.461 234.15 4.1992 2.1875 5.7734 7.2617 3.6758 11.461-1.4844 2.8906-4.4609 4.5547-7.5234 4.5547z"/>
  <path d="m512.84 357c-0.52344 0-1.1367-0.085938-1.6641-0.17578l-26.074-5.25c-2.2734-0.4375-4.2891-1.8359-5.5117-3.8516-1.2266-2.0117-1.5742-4.4609-0.96094-6.7383l7.1758-25.637c1.2266-4.5508 5.9492-7.1758 10.414-5.8633 4.5508 1.2266 7.1758 5.9492 5.8633 10.414l-4.7266 16.887 17.148 3.4141c4.5508 0.96094 7.5234 5.4258 6.6484 9.9766-0.78516 4.0234-4.375 6.8242-8.3125 6.8242z"/>
  <use x="70" y="691.25" xlink:href="#m"/>
  <use x="102.109375" y="691.25" xlink:href="#c"/>
  <use x="123.683594" y="691.25" xlink:href="#b"/>
  <use x="153.355469" y="691.25" xlink:href="#d"/>
  <use x="182.878906" y="691.25" xlink:href="#a"/>
  <use x="203.792969" y="691.25" xlink:href="#b"/>
  <use x="233.464844" y="691.25" xlink:href="#i"/>
  <use x="280.011719" y="691.25" xlink:href="#h"/>
  <use x="311.328125" y="691.25" xlink:href="#g"/>
  <use x="355.078125" y="691.25" xlink:href="#f"/>
  <use x="388.9375" y="691.25" xlink:href="#b"/>
  <use x="418.613281" y="691.25" xlink:href="#l"/>
  <use x="444.546875" y="691.25" xlink:href="#a"/>
  <use x="465.460938" y="691.25" xlink:href="#e"/>
  <use x="495.515625" y="691.25" xlink:href="#c"/>
  <use x="532.324219" y="691.25" xlink:href="#k"/>
  <use x="564.386719" y="691.25" xlink:href="#e"/>
  <use x="594.445312" y="691.25" xlink:href="#c"/>
  <use x="616.019531" y="691.25" xlink:href="#a"/>
  <use x="636.933594" y="691.25" xlink:href="#d"/>
  <use x="666.457031" y="691.25" xlink:href="#j"/>
 </g>
</svg>
